# xmcd
#
# Track frame offsets:
#	150
#	15209
#	38646
#	52083
#	67563
#	82515
#	99452
#	111325
#	129012
#	141381
#	158883
#	169853
#	186408
#	212161
#	227838
#	240183
#	255240
#	269845
#	287609
#	301233
#
# Disc length: 4217 seconds
#
# Revision: 0
# Processed by: cddbd v1.5.2PL0 Copyright (c) Steve Scherf et al.
# Submitted via: dBpowerAMP V4.0
#
DISCID=01107714
DTITLE=Cesar Menotti and Fabiano Bruno and Marrone - Cesar Menotti and Fabiano Bruno and Marrone
DYEAR=1900
DGENRE=Country
TTITLE0=Leilão
TTITLE1=Por Te Amar Demais
TTITLE2=Como Um Anjo
TTITLE3=Vê Se Toma Juízo
TTITLE4=Caso Marcado
TTITLE5=Essa História Eu Conheço
TTITLE6=Fica Comigo
TTITLE7=Choram As Rosas
TTITLE8=Mansagem Pra Ela
TTITLE9=Por Um Gole A Mais
TTITLE10=Aqui Não
TTITLE11=Porque Choras?
TTITLE12=Lugar Melhor Que BH
TTITLE13=Que Pescar Que Nada
TTITLE14=Bão Também
TTITLE15=Não Posso Ter Medo De Amar
TTITLE16=Na Hora Do Adeus
TTITLE17=Marianne
TTITLE18=Sem Medo De Ser Feliz
TTITLE19=Faz Mais, Faz
EXTD=country
EXTT0=
EXTT1=
EXTT2=
EXTT3=
EXTT4=
EXTT5=
EXTT6=
EXTT7=
EXTT8=
EXTT9=
EXTT10=
EXTT11=
EXTT12=
EXTT13=
EXTT14=
EXTT15=
EXTT16=
EXTT17=
EXTT18=
EXTT19=
PLAYORDER=
